<?xml version="1.0" encoding="UTF-8"?>
<svg width="29px" height="29px" viewBox="0 0 29 29" version="1.1" xmlns="http://www.w3.org/2000/svg" xmlns:xlink="http://www.w3.org/1999/xlink">
    <title>Fill 1</title>
    <g id="App-Design" stroke="none" stroke-width="1" fill="none" fill-rule="evenodd">
        <g id="Fully-charged" transform="translate(-315.000000, -703.000000)" fill="#FFFFFF">
            <g id="Group-4" transform="translate(299.000000, 689.000000)">
                <path d="M44.0275679,38.7438847 C42.7596968,37.0100822 36.3150586,37.7291398 35.3316745,35.7489312 C33.3805866,31.8198748 34.1780462,32.5501327 35.4481573,31.5757088 C36.6421066,30.6640064 36.5861053,28.2559473 37.3141231,27.4002463 C38.0555813,26.533345 38.3960697,24.046884 38.1183029,23.110541 C37.7486938,21.8673105 37.1819599,22.5438071 37.0968378,21.6052241 C36.9131533,19.5846945 37.4216458,17.9225737 36.2836979,16.9391895 C35.1860709,15.9894062 33.8084371,14.0271181 31.5683821,13.9999892 C30.788843,13.9912772 29.9040213,14.2242429 28.8892764,14.8066572 C24.0552377,14.2892045 24.0865985,19.5846945 23.902914,21.6052241 C23.8155518,22.5438071 23.2488179,21.8673105 22.8814489,23.110541 C22.601442,24.046884 22.9441704,26.533345 23.6833886,27.4002463 C24.4136465,28.2559473 24.3576451,30.6640064 25.5493544,31.5757088 C26.8217056,32.5501327 27.6169251,31.8198748 25.6658372,35.7489312 C24.6824531,37.7313799 18.240055,37.0100822 16.9721839,38.7438847 C16,40.0677572 16,42.9999892 16,42.9999892 L30.4998759,42.9999892 L44.9997518,42.9999892 C44.9997518,42.9999892 44.9997518,40.0677572 44.0275679,38.7438847" id="Fill-1"></path>
            </g>
        </g>
    </g>
</svg>