<?xml version="1.0" encoding="UTF-8"?>
<svg width="29px" height="23px" viewBox="0 0 29 23" version="1.1" xmlns="http://www.w3.org/2000/svg" xmlns:xlink="http://www.w3.org/1999/xlink">
    <title>Fill 1</title>
    <g id="App-Design" stroke="none" stroke-width="1" fill="none" fill-rule="evenodd">
        <g id="Start-screen" transform="translate(-31.000000, -706.000000)" fill="#FFFFFF">
            <g id="Group-8" transform="translate(15.000000, 589.000000)">
                <g id="Group-5" transform="translate(0.000000, 100.000000)">
                    <g id="Group-3" transform="translate(16.000000, 16.999200)">
                        <path d="M14.5001008,20.1264492 C10.4940246,20.1264492 7.2500504,16.910295 7.2500504,12.9385744 C7.2500504,8.96685381 10.4940246,5.7506996 14.5001008,5.7506996 C18.506177,5.7506996 21.7501512,8.96685381 21.7501512,12.9385744 C21.7501512,16.910295 18.506177,20.1264492 14.5001008,20.1264492 M28.2743901,2.87435037 L26.1009879,2.87435037 L26.1009879,2.15676221 C26.1009879,1.76098935 25.7743727,1.43717519 25.3751764,1.43717519 L23.9255696,1.43717519 C23.5263732,1.43717519 23.1997581,1.76098935 23.1997581,2.15676221 L23.1997581,2.87435037 L21.7501512,2.87435037 L18.8509375,0 L10.1492641,0 L7.2500504,2.87435037 L0.725811498,2.87435037 C0.326615174,2.87435037 0,3.19816453 0,3.59393739 L0,22.2832114 C0,22.6789842 0.326615174,23.0007995 0.725811498,23.0007995 L28.2743901,23.0007995 C28.6735864,23.0007995 29.0002016,22.6789842 29.0002016,22.2832114 L29.0002016,3.59393739 C29.0002016,3.19816453 28.6735864,2.87435037 28.2743901,2.87435037" id="Fill-1"></path>
                    </g>
                </g>
            </g>
        </g>
    </g>
</svg>