<svg width="30" height="27" xmlns="http://www.w3.org/2000/svg">
    <g transform="translate(2 2)" stroke="#000" fill="none" fill-rule="evenodd">
        <ellipse stroke-width="1.552" cx="16.642" cy="15.749" rx="2.279" ry="2.199"/>
        <ellipse stroke-width="1.552" cx="9.346" cy="15.749" rx="2.279" ry="2.199"/>
        <ellipse stroke-width="1.552" cx="5.912" cy="9.81" rx="2.279" ry="2.199"/>
        <ellipse stroke-width="1.552" cx="12.994" cy="9.81" rx="2.279" ry="2.199"/>
        <ellipse stroke-width="1.552" cx="19.968" cy="9.81" rx="2.279" ry="2.199"/>
        <ellipse stroke-width="1.552" cx="16.588" cy="4.985" rx="1.663" ry="1.697"/>
        <ellipse stroke-width="1.552" cx="9.614" cy="4.985" rx="1.663" ry="1.697"/>
        <path d="M5.805 0h14.592s1.53 1.023 2.175 1.725c.644.703 1.259 1.648 1.688 2.411.429.763.777 1.447 1.073 2.333.296.887.567 1.81.644 2.97.076 1.16-.035 2.747-.322 3.924-.288 1.177-.821 2.248-1.288 3.075-.467.827-.809 1.247-1.395 1.91a15.917 15.917 0 0 1-2.146 2.014c-.79.605-1.621 1.16-2.575 1.591-.954.432-3.111.955-3.111.955s-2.922.387-5.258-.425c-.928-.322-1.537-.432-2.575-.954-1.3-.654-2.554-1.483-3.54-2.545a14.967 14.967 0 0 1-3.112-5.091c-.53-1.48-.703-3.098-.644-4.666.044-1.192.326-2.384.75-3.5.362-.948.974-1.86 1.503-2.651.518-.775 1.43-1.623 2.039-2.122C4.913.456 5.805 0 5.805 0z" stroke-width="2.7" stroke-linejoin="round"/>
    </g>
</svg>
