<?xml version="1.0" encoding="UTF-8"?>
<svg width="48px" height="53px" viewBox="0 0 48 53" version="1.1" xmlns="http://www.w3.org/2000/svg" xmlns:xlink="http://www.w3.org/1999/xlink">
    <title>Fill 1</title>
    <g id="App-Design" stroke="none" stroke-width="1" fill="none" fill-rule="evenodd">
        <g id="Start-screen" transform="translate(-164.000000, -692.000000)" fill="#FFFFFF">
            <g id="Group-8" transform="translate(15.000000, 589.000000)">
                <g id="Group-7" transform="translate(133.000000, 89.000000)">
                    <path d="M56.24729,35.1656398 L56.24729,47.8563529 C56.24729,49.0234503 55.6161825,50.1026284 54.5917307,50.6858675 L42.2349474,57.727458 C41.2104956,58.3106971 39.9482806,58.3106971 38.9238288,57.727458 L31.385043,53.4317968 L21,56.3486114 L38.9238288,66.5621063 C39.9482806,67.1459646 41.2104956,67.1459646 42.2349474,66.5621063 L62.3444407,55.1035012 C63.3688925,54.519643 64,53.441084 64,52.2733675 L64,31 L56.24729,35.1656398 Z M17.3732128,50.8902321 L17.3732128,29.01334 C17.3732128,27.8228896 18.0014311,26.7233326 19.021193,26.1281074 L39.0386262,14.4464189 C40.0583881,13.8511937 41.3148247,13.8511937 42.3345866,14.4464189 L64,27.090062 L38.5328043,41.5654585 L43.091446,46.4269901 L17.6692123,54.4716824 L17.6685878,54.4716824 L16,55 L25.2677812,49.8998734 L25.2752748,49.9042918 L35.3386327,44.3951451 L29.9906589,38.2276529 L49.3330384,27.5375855 L42.3345866,23.4530658 C41.3148247,22.8578406 40.0583881,22.8578406 39.0386262,23.4530658 L26.7384115,30.6317465 C25.7186496,31.2263404 25.0904313,32.3265286 25.0904313,33.5163478 L25.0904313,46.503997 L17.3732128,50.8902321 Z" id="Fill-1"></path>
                </g>
            </g>
        </g>
    </g>
</svg>