<svg width="97" height="108" xmlns="http://www.w3.org/2000/svg" xmlns:xlink="http://www.w3.org/1999/xlink">
    <defs>
        <linearGradient x1="0%" y1="53.59%" x2="95.645%" y2="53.59%" id="b">
            <stop stop-color="#F9E300" offset="0%"/>
            <stop stop-color="#77BD75" offset="77.445%"/>
            <stop stop-color="#409C68" offset="100%"/>
        </linearGradient>
        <path id="a" d="M0 0h96.829v106.51H0z"/>
    </defs>
    <g fill="none" fill-rule="evenodd">
        <mask id="c" fill="#fff">
            <use xlink:href="#a"/>
        </mask>
        <path d="M81.262 41.765v25.81a6.644 6.644 0 0 1-3.325 5.755L53.124 87.65a6.656 6.656 0 0 1-6.649 0l-15.138-8.736-20.854 5.932 35.992 20.772a6.65 6.65 0 0 0 6.65 0l40.38-23.305a6.646 6.646 0 0 0 3.325-5.756V33.293l-15.568 8.472zM2.77 73.595V29.95a6.646 6.646 0 0 1 3.324-5.756L46.475.89a6.65 6.65 0 0 1 6.65 0L96.83 26.114 45.455 54.992l9.196 9.698L3.367 80.74h-.001L0 81.792 18.696 71.62l.015.008 20.3-10.99-10.788-12.304 39.02-21.326-14.119-8.149a6.65 6.65 0 0 0-6.649 0L21.662 33.18a6.644 6.644 0 0 0-3.324 5.755v25.91L2.77 73.594z" fill="url(#b)" mask="url(#c)"/>
    </g>
</svg>
